<?xml version="1.0" standalone="no"?>
<!DOCTYPE svg PUBLIC "-//W3C//DTD SVG 20010904//EN"
 "http://www.w3.org/TR/2001/REC-SVG-20010904/DTD/svg10.dtd">
<svg version="1.0" xmlns="http://www.w3.org/2000/svg"
 width="500.000000pt" height="500.000000pt" viewBox="0 0 500.000000 500.000000"
 preserveAspectRatio="xMidYMid meet">

<g transform="translate(0.000000,500.000000) scale(0.100000,-0.100000)"
fill="#000000" stroke="none">
<path d="M2552 3940 c-88 -54 -77 -185 20 -236 83 -43 188 25 188 122 0 106
-117 169 -208 114z"/>
<path d="M2819 3821 c-33 -33 -35 -50 -14 -90 24 -48 81 -56 120 -16 39 38 27
102 -22 124 -37 17 -52 14 -84 -18z"/>
<path d="M2986 3729 c-50 -39 -24 -119 39 -119 54 0 84 44 65 94 -8 23 -43 46
-69 46 -5 0 -20 -9 -35 -21z"/>
<path d="M2643 3646 c-72 -18 -98 -38 -118 -91 -31 -79 -6 -223 61 -358 19
-37 34 -77 34 -87 0 -27 -52 -83 -104 -114 -122 -71 -169 -223 -107 -344 26
-51 61 -78 124 -97 135 -40 289 10 392 128 163 186 246 593 161 783 -54 121
-156 184 -305 190 -50 2 -107 -2 -138 -10z"/>
<path d="M3100 3600 c-11 -11 -20 -31 -20 -45 0 -14 9 -34 20 -45 11 -11 31
-20 45 -20 14 0 34 9 45 20 11 11 20 31 20 45 0 14 -9 34 -20 45 -11 11 -31
20 -45 20 -14 0 -34 -9 -45 -20z"/>
<path d="M3166 3444 c-40 -40 7 -109 59 -86 32 15 41 47 21 77 -19 29 -57 33
-80 9z"/>
<path d="M596 1938 c-23 -37 -156 -427 -150 -442 8 -21 32 -28 54 -16 11 6 29
37 41 71 17 47 25 58 38 53 62 -28 143 -8 177 44 30 46 75 193 69 223 -10 45
-51 71 -107 68 -27 -2 -53 2 -60 9 -19 19 -46 14 -62 -10z m129 -75 c20 -19
16 -47 -17 -130 -26 -64 -53 -81 -88 -56 -25 18 -24 35 10 126 14 38 30 61 43
67 31 12 34 12 52 -7z"/>
<path d="M2896 1938 c-23 -37 -156 -427 -150 -442 8 -21 32 -28 54 -16 11 6
29 37 41 71 17 47 25 58 38 53 62 -28 143 -8 177 44 30 46 75 193 69 223 -10
45 -51 71 -107 68 -27 -2 -53 2 -60 9 -19 19 -46 14 -62 -10z m129 -75 c20
-19 16 -47 -17 -130 -26 -64 -53 -81 -88 -56 -25 18 -24 35 10 126 14 38 30
61 43 67 31 12 34 12 52 -7z"/>
<path d="M1660 1915 c-7 -9 -10 -25 -6 -40 6 -22 11 -26 39 -23 25 2 33 8 35
26 7 44 -41 70 -68 37z"/>
<path d="M4406 1914 c-19 -18 -19 -20 -6 -45 6 -11 21 -19 35 -19 20 0 45 24
45 44 0 10 -32 36 -45 36 -7 0 -21 -7 -29 -16z"/>
<path d="M836 1804 c-13 -12 -16 -26 -11 -53 4 -24 -1 -55 -14 -93 -16 -48
-17 -59 -6 -68 22 -18 50 4 64 49 14 47 28 59 47 39 13 -12 12 -20 -1 -57 -30
-85 -15 -131 47 -146 19 -5 39 0 66 15 39 22 40 22 67 4 39 -25 127 -25 180 1
l40 20 45 -23 c49 -25 106 -25 156 1 23 12 31 11 66 -7 39 -19 43 -19 88 -3
43 15 50 16 79 1 39 -20 96 -12 128 18 29 27 100 32 108 7 13 -40 87 -47 128
-11 15 14 19 14 35 -1 28 -25 66 -30 107 -13 35 15 42 15 81 0 54 -20 143 -15
198 11 44 21 96 87 96 122 0 38 -42 30 -71 -14 -28 -43 -49 -53 -49 -24 0 11
-12 45 -27 75 -24 50 -25 58 -13 81 18 33 4 59 -32 63 -28 3 -48 -18 -88 -98
-12 -24 -33 -52 -46 -62 -12 -10 -27 -33 -33 -51 -13 -39 -48 -64 -65 -47 -8
8 -2 35 22 105 37 103 38 138 6 143 -29 4 -37 -9 -74 -115 -38 -108 -90 -172
-106 -130 -2 7 11 57 31 111 37 103 36 136 -5 136 -23 0 -35 -20 -64 -109 -15
-42 -32 -72 -49 -85 -40 -29 -52 -10 -26 42 39 79 -2 152 -87 152 -57 0 -96
-37 -130 -125 -17 -43 -36 -86 -42 -96 -16 -25 -45 -39 -61 -30 -10 7 -5 31
24 115 31 87 35 108 25 121 -30 36 -58 8 -89 -87 -29 -88 -58 -129 -103 -146
-47 -18 -91 0 -96 39 -5 42 36 139 58 139 16 0 19 -7 17 -37 -2 -32 1 -38 20
-41 44 -6 69 71 38 115 -32 45 -126 38 -159 -11 -7 -12 -27 -57 -42 -100 -26
-75 -30 -80 -72 -98 -34 -15 -52 -18 -75 -11 -35 10 -53 33 -44 57 6 14 11 15
28 6 47 -26 128 19 142 78 13 56 -36 112 -98 112 -65 0 -102 -42 -140 -159
-20 -61 -60 -110 -77 -93 -7 7 -3 31 12 77 27 81 20 104 -39 134 -26 14 -41
29 -43 43 -4 29 -48 36 -72 12z m382 -97 c5 -25 -16 -47 -44 -47 -28 0 -31 16
-8 48 18 26 47 25 52 -1z m661 9 c16 -19 1 -54 -29 -69 -27 -14 -38 -51 -20
-71 13 -17 -14 -49 -39 -44 -24 5 -25 42 -1 113 26 78 61 106 89 71z m539 -91
c25 -54 9 -95 -34 -95 -33 0 -39 18 -10 29 27 11 36 35 24 69 -10 30 6 28 20
-3z"/>
<path d="M3136 1804 c-13 -12 -16 -26 -11 -53 4 -24 -1 -55 -14 -93 -16 -48
-17 -59 -6 -68 22 -18 50 4 64 49 14 47 28 59 47 39 13 -12 12 -20 -1 -57 -30
-85 -15 -131 47 -146 19 -5 39 0 66 15 39 22 40 22 67 4 41 -26 127 -25 184 3
43 22 45 22 68 3 32 -25 92 -34 142 -20 29 8 47 8 61 0 36 -19 53 3 94 119 36
104 54 131 85 131 18 0 12 -35 -19 -121 -32 -87 -35 -132 -10 -136 28 -5 42
14 79 116 40 107 60 141 86 141 20 0 19 -26 -5 -95 -11 -32 -20 -72 -20 -90 0
-58 60 -88 123 -61 32 13 40 13 64 1 38 -20 61 -19 105 5 35 18 38 18 70 2 48
-25 133 -22 184 7 42 24 94 92 94 123 0 33 -32 34 -54 3 -37 -52 -75 -83 -110
-89 -42 -8 -82 7 -91 33 -10 32 1 41 35 30 90 -32 178 81 120 154 -37 46 -117
47 -162 2 -13 -13 -39 -62 -57 -110 -34 -90 -70 -130 -94 -106 -9 9 -4 34 22
110 36 107 37 134 5 139 -28 4 -37 -9 -73 -111 -38 -108 -46 -124 -72 -138
-40 -21 -44 4 -15 85 31 88 32 106 7 137 -15 19 -28 23 -62 22 -73 -3 -91 -3
-166 1 -47 3 -75 0 -81 -8 -5 -6 -22 -49 -38 -95 -33 -96 -56 -125 -111 -141
-53 -16 -98 3 -98 40 0 18 4 24 15 20 42 -13 91 -3 119 24 90 86 -8 209 -119
151 -32 -17 -57 -59 -85 -143 -18 -56 -50 -85 -107 -97 -40 -9 -83 14 -83 45
0 18 4 24 15 20 42 -13 91 -3 119 24 90 86 -8 209 -119 151 -32 -17 -57 -59
-85 -144 -20 -61 -60 -110 -77 -93 -7 7 -3 31 12 77 27 81 20 104 -39 134 -26
14 -41 29 -43 43 -4 29 -48 36 -72 12z m382 -97 c5 -25 -16 -47 -44 -47 -28 0
-31 16 -8 48 18 26 47 25 52 -1z m260 0 c5 -25 -16 -47 -44 -47 -28 0 -31 16
-8 48 18 26 47 25 52 -1z m837 -12 c0 -27 -4 -30 -33 -33 -31 -3 -33 -2 -27
20 18 56 60 65 60 13z"/>
</g>
</svg>
